<svg width="121" height="33" viewBox="0 0 121 33" fill="none" xmlns="http://www.w3.org/2000/svg">
<g clip-path="url(#clip0_8_2)">
<path d="M11.9729 30.2249C10.135 30.2249 8.48082 29.9098 7.01046 29.2796C5.5401 28.6232 4.38482 27.7042 3.54462 26.5227C2.70441 25.3412 2.28431 23.9627 2.28431 22.3873H7.08923C7.19426 23.5688 7.65374 24.5403 8.46769 25.3018C9.3079 26.0632 10.4763 26.4439 11.9729 26.4439C13.5221 26.4439 14.7298 26.0763 15.5963 25.3412C16.4628 24.5797 16.896 23.6082 16.896 22.4267C16.896 21.5077 16.6203 20.7594 16.0689 20.1818C15.5438 19.6041 14.8743 19.1578 14.0603 18.8427C13.2726 18.5276 12.1698 18.1863 10.752 17.8187C8.96656 17.3461 7.50933 16.8735 6.38031 16.4008C5.27754 15.902 4.33231 15.1405 3.54462 14.1165C2.75692 13.0925 2.36308 11.7272 2.36308 10.0205C2.36308 8.44516 2.75692 7.06669 3.54462 5.88516C4.33231 4.70362 5.43508 3.79777 6.85292 3.16762C8.27077 2.53746 9.9118 2.22239 11.776 2.22239C14.4279 2.22239 16.5941 2.89192 18.2745 4.231C19.9811 5.54382 20.9264 7.35551 21.1102 9.66608H16.1477C16.0689 8.66833 15.5963 7.815 14.7298 7.10608C13.8634 6.39715 12.7212 6.04269 11.3034 6.04269C10.0168 6.04269 8.96656 6.3709 8.15262 7.02731C7.33867 7.68372 6.93169 8.62895 6.93169 9.863C6.93169 10.7032 7.18113 11.399 7.68 11.9504C8.20513 12.4755 8.86154 12.8956 9.64923 13.2107C10.4369 13.5258 11.5134 13.8671 12.8788 14.2347C14.6905 14.7336 16.1608 15.2324 17.2898 15.7313C18.4451 16.2302 19.4166 17.0047 20.2043 18.055C21.0183 19.079 21.4252 20.4575 21.4252 22.1904C21.4252 23.582 21.0445 24.8948 20.2831 26.1288C19.5479 27.3629 18.4583 28.3606 17.0142 29.1221C15.5963 29.8573 13.9159 30.2249 11.9729 30.2249ZM37.9477 7.89377C39.6018 7.89377 41.0722 8.24823 42.3588 8.95715C43.6716 9.66608 44.6956 10.7163 45.4308 12.1079C46.1922 13.4995 46.5729 15.1799 46.5729 17.1492V29.9492H42.1225V17.8187C42.1225 15.8757 41.6367 14.3922 40.6652 13.3682C39.6937 12.318 38.3678 11.7928 36.6874 11.7928C35.007 11.7928 33.6679 12.318 32.6702 13.3682C31.6987 14.3922 31.2129 15.8757 31.2129 17.8187V29.9492H26.7231V0.804541H31.2129V10.7688C31.9744 9.84987 32.9327 9.14095 34.088 8.64208C35.2695 8.14321 36.5561 7.89377 37.9477 7.89377ZM71.9529 8.24823V29.9492H67.4631V27.3892C66.7542 28.2819 65.8221 28.9908 64.6668 29.5159C63.5377 30.0148 62.3299 30.2642 61.0434 30.2642C59.3367 30.2642 57.8007 29.9098 56.4354 29.2008C55.0963 28.4919 54.0329 27.4417 53.2452 26.0501C52.4838 24.6585 52.1031 22.9781 52.1031 21.0088V8.24823H56.5535V20.3393C56.5535 22.2823 57.0393 23.7789 58.0108 24.8292C58.9823 25.8532 60.3082 26.3652 61.9886 26.3652C63.669 26.3652 64.995 25.8532 65.9665 24.8292C66.9642 23.7789 67.4631 22.2823 67.4631 20.3393V8.24823H71.9529ZM82.3668 11.399C83.0232 10.2962 83.8896 9.4429 84.9662 8.839C86.0689 8.20885 87.3686 7.89377 88.8652 7.89377V12.5412H87.7231C85.9639 12.5412 84.6248 12.9875 83.7059 13.8802C82.8131 14.773 82.3668 16.3221 82.3668 18.5276V29.9492H77.8769V8.24823H82.3668V11.399ZM97.4822 0.804541V29.9492H92.9923V0.804541H97.4822ZM111.254 30.3036C109.547 30.3036 108.011 30.0017 106.646 29.3978C105.307 28.7676 104.243 27.9274 103.456 26.8772C102.668 25.8006 102.248 24.606 102.195 23.2932H106.843C106.922 24.2121 107.355 24.9867 108.142 25.6168C108.956 26.2207 109.967 26.5227 111.175 26.5227C112.435 26.5227 113.407 26.2864 114.09 25.8138C114.798 25.3149 115.153 24.6847 115.153 23.9233C115.153 23.1094 114.759 22.5055 113.971 22.1116C113.21 21.7178 111.989 21.2845 110.309 20.8119C108.681 20.3656 107.355 19.9323 106.331 19.5122C105.307 19.0921 104.414 18.4488 103.653 17.5824C102.917 16.7159 102.55 15.5738 102.55 14.1559C102.55 13.0006 102.891 11.9504 103.574 11.0052C104.257 10.0337 105.228 9.27223 106.488 8.72085C107.775 8.16946 109.245 7.89377 110.899 7.89377C113.367 7.89377 115.35 8.52393 116.846 9.78423C118.369 11.0183 119.183 12.7118 119.288 14.8648H114.798C114.72 13.8934 114.326 13.1188 113.617 12.5412C112.908 11.9635 111.95 11.6747 110.742 11.6747C109.56 11.6747 108.654 11.8979 108.024 12.3442C107.394 12.7906 107.079 13.3814 107.079 14.1165C107.079 14.6942 107.289 15.1799 107.709 15.5738C108.129 15.9676 108.641 16.2827 109.245 16.519C109.849 16.7291 110.742 17.0047 111.923 17.3461C113.499 17.7662 114.785 18.1994 115.783 18.6458C116.807 19.0659 117.687 19.696 118.422 20.5362C119.157 21.3764 119.538 22.4923 119.564 23.8839C119.564 25.118 119.223 26.2207 118.54 27.1922C117.857 28.1637 116.886 28.9252 115.626 29.4765C114.391 30.0279 112.934 30.3036 111.254 30.3036Z" fill="#F5F5F5"/>
</g>
<defs>
<clipPath id="clip0_8_2">
<rect width="121" height="33" fill="white"/>
</clipPath>
</defs>
</svg>
