<svg width="121" height="33" viewBox="0 0 121 33" fill="none" xmlns="http://www.w3.org/2000/svg">
<g clip-path="url(#clip0_8_2)">
<path d="M10.2092 30.7613C8.29251 30.7613 6.55959 30.4331 5.01046 29.7767C3.48759 29.1203 2.2798 28.1751 1.38708 26.941C0.494359 25.707 0.0348719 24.2498 0.00861557 22.5693H5.91631C5.99508 23.6984 6.38892 24.5911 7.09785 25.2475C7.83303 25.9039 8.83077 26.2321 10.0911 26.2321C11.3776 26.2321 12.3885 25.9302 13.1237 25.3263C13.8589 24.6961 14.2265 23.8822 14.2265 22.8844C14.2265 22.0705 13.977 21.4009 13.4782 20.8758C12.9793 20.3507 12.3491 19.9437 11.5877 19.6549C10.8525 19.3398 9.82851 18.9985 8.51569 18.6309C6.73026 18.1058 5.27303 17.5938 4.144 17.0949C3.04123 16.5698 2.08287 15.7952 1.26892 14.7712C0.481231 13.7209 0.0873848 12.3293 0.0873848 10.5964C0.0873848 8.96853 0.494359 7.55068 1.30831 6.34289C2.12226 5.13509 3.26441 4.21612 4.73477 3.58596C6.20513 2.92955 7.88554 2.60135 9.776 2.60135C12.6117 2.60135 14.9091 3.29714 16.6683 4.68873C18.4537 6.05406 19.4384 7.97078 19.6222 10.4389H13.5569C13.5044 9.49366 13.0974 8.71909 12.336 8.11519C11.6008 7.48504 10.6162 7.16996 9.38215 7.16996C8.30564 7.16996 7.43918 7.44566 6.78277 7.99704C6.15262 8.54842 5.83754 9.34924 5.83754 10.3995C5.83754 11.1347 6.07385 11.7517 6.54646 12.2506C7.04533 12.7232 7.64923 13.117 8.35815 13.4321C9.09333 13.7209 10.1173 14.0623 11.4302 14.4561C13.2156 14.9812 14.6728 15.5064 15.8018 16.0315C16.9309 16.5566 17.9024 17.3443 18.7163 18.3946C19.5303 19.4448 19.9372 20.8233 19.9372 22.53C19.9372 24.0003 19.5565 25.3657 18.7951 26.626C18.0336 27.8863 16.9177 28.8971 15.4474 29.6586C13.977 30.3938 12.231 30.7613 10.2092 30.7613ZM37.0055 8.3515C38.6597 8.3515 40.1301 8.71909 41.4166 9.45427C42.7032 10.1632 43.7009 11.2266 44.4098 12.6444C45.145 14.036 45.5126 15.7164 45.5126 17.6857V30.4857H39.9988V18.434C39.9988 16.701 39.5655 15.3751 38.6991 14.4561C37.8326 13.5109 36.6511 13.0383 35.1545 13.0383C33.6316 13.0383 32.4238 13.5109 31.5311 14.4561C30.6646 15.3751 30.2314 16.701 30.2314 18.434V30.4857H24.7175V1.34104H30.2314V11.3841C30.9403 10.4389 31.8855 9.70371 33.0671 9.17858C34.2486 8.62719 35.5614 8.3515 37.0055 8.3515ZM71.3542 8.66658V30.4857H65.8009V27.7287C65.092 28.674 64.1599 29.4223 63.0046 29.9737C61.8756 30.4988 60.6415 30.7613 59.3025 30.7613C57.5958 30.7613 56.0861 30.4069 54.7732 29.698C53.4604 28.9628 52.4233 27.8994 51.6618 26.5078C50.9267 25.09 50.5591 23.4096 50.5591 21.4666V8.66658H56.0729V20.6789C56.0729 22.4118 56.5062 23.7509 57.3726 24.6961C58.2391 25.6151 59.4206 26.0746 60.9172 26.0746C62.4401 26.0746 63.6348 25.6151 64.5012 24.6961C65.3677 23.7509 65.8009 22.4118 65.8009 20.6789V8.66658H71.3542ZM82.3083 12.0537C83.0172 10.8984 83.9362 9.99253 85.0652 9.33612C86.2205 8.67971 87.5333 8.3515 89.0037 8.3515V14.141H87.5465C85.8135 14.141 84.5007 14.548 83.608 15.362C82.7415 16.1759 82.3083 17.5938 82.3083 19.6155V30.4857H76.7945V8.66658H82.3083V12.0537ZM98.2314 1.34104V30.4857H92.7175V1.34104H98.2314ZM112.029 30.8401C110.243 30.8401 108.642 30.525 107.224 29.8949C105.806 29.2385 104.677 28.3589 103.837 27.2561C103.023 26.1533 102.576 24.9324 102.498 23.5933H108.051C108.156 24.4336 108.563 25.1293 109.272 25.6807C110.007 26.2321 110.913 26.5078 111.989 26.5078C113.039 26.5078 113.853 26.2978 114.431 25.8777C115.035 25.4576 115.337 24.9193 115.337 24.2629C115.337 23.554 114.969 23.0288 114.234 22.6875C113.525 22.3199 112.383 21.9261 110.808 21.506C109.18 21.1121 107.841 20.7051 106.79 20.285C105.766 19.8649 104.874 19.2217 104.112 18.3552C103.377 17.4887 103.01 16.3203 103.01 14.85C103.01 13.6422 103.351 12.5394 104.034 11.5417C104.742 10.5439 105.74 9.75622 107.027 9.17858C108.34 8.60094 109.876 8.31212 111.635 8.31212C114.234 8.31212 116.308 8.96853 117.858 10.2813C119.407 11.5679 120.26 13.314 120.418 15.5195H115.14C115.061 14.653 114.694 13.9704 114.037 13.4715C113.407 12.9464 112.554 12.6838 111.477 12.6838C110.479 12.6838 109.705 12.8676 109.154 13.2352C108.628 13.6028 108.366 14.1148 108.366 14.7712C108.366 15.5064 108.733 16.0709 109.469 16.4647C110.204 16.8323 111.346 17.213 112.895 17.6069C114.47 18.0007 115.77 18.4077 116.794 18.8278C117.818 19.2479 118.698 19.9043 119.433 20.797C120.194 21.6635 120.588 22.8188 120.614 24.2629C120.614 25.5232 120.26 26.6522 119.551 27.65C118.868 28.6477 117.871 29.4354 116.558 30.013C115.271 30.5644 113.762 30.8401 112.029 30.8401Z" fill="#34313D"/>
</g>
<defs>
<clipPath id="clip0_8_2">
<rect width="121" height="33" fill="white"/>
</clipPath>
</defs>
</svg>
